<svg width="524.537451171875px" height="136.39999999999998px" xmlns="http://www.w3.org/2000/svg" viewBox="-12.268725585937489 6.800000000000011 524.537451171875 136.39999999999998" style="background: rgba(0, 0, 0, 0);" preserveAspectRatio="xMidYMid"><defs><filter id="editing-extrusion" x="-100%" y="-100%" width="300%" height="300%"><feFlood result="color1" flood-color="#444"></feFlood><feConvolveMatrix order="8,8" divisor="1" kernelMatrix="1 0 0 0 0 0 0 0 0 1 0 0 0 0 0 0 0 0 1 0 0 0 0 0 0 0 0 1 0 0 0 0 0 0 0 0 1 0 0 0 0 0 0 0 0 1 0 0 0 0 0 0 0 0 1 0 0 0 0 0 0 0 0 1" in="SourceAlpha" result="extrude"></feConvolveMatrix><feComposite in="color1" in2="extrude" result="comp-extrude" operator="in"></feComposite><feOffset dx="4" dy="4" in="comp-extrude" result="offset-extrude"></feOffset><feMerge><feMergeNode in="offset-extrude"></feMergeNode><feMergeNode in="SourceGraphic"></feMergeNode></feMerge></filter></defs><g filter="url(#editing-extrusion)"><g transform="translate(65.82302552461624, 100.69999885559082)"><path d="M52.85-39.74L52.85-39.74L52.85-39.74Q52.30-40.64 50.92-40.64L50.92-40.64L50.92-40.64Q49.54-40.64 48.33-40.30L48.33-40.30L48.33-40.30Q47.13-39.95 45.47-39.33L45.47-39.33L45.47-39.33Q42.78-38.23 41.12-37.26L41.12-37.26L41.12-37.26Q34.91-33.95 29.53-29.50L29.53-29.50L29.53-29.50Q24.15-25.05 23.87-22.84L23.87-22.84L23.87-22.84Q23.74-21.11 25.74-20.01L25.74-20.01L25.74-20.01Q27.46-18.98 29.74-18.04L29.74-18.04L29.74-18.04Q32.02-17.11 33.05-16.63L33.05-16.63L33.05-16.63Q38.57-13.87 38.57-9.32L38.57-9.32L38.57-9.32Q38.57-7.31 37.40-5.45L37.40-5.45L37.40-5.45Q35.54-2.55 31.77-0.66L31.77-0.66L31.77-0.66Q28.01 1.24 23.74 2.00L23.74 2.00L23.74 2.00Q19.32 2.76 16.42 2.76L16.42 2.76L16.42 2.76Q11.18 2.76 5.93 0.52L5.93 0.52L5.93 0.52Q0.69-1.73-0.55-6.49L-0.55-6.49L-0.55-6.49Q2.00-4.21 6.49-3.24L6.49-3.24L6.49-3.24Q10.97-2.28 15.04-2.28L15.04-2.28L15.04-2.28Q21.11-2.35 24.05-3.24L24.05-3.24L24.05-3.24Q26.98-4.14 29.15-5.35L29.15-5.35L29.15-5.35Q31.33-6.56 33.15-8.18L33.15-8.18L33.15-8.18Q34.98-9.80 34.98-11.76L34.98-11.76L34.98-11.76Q34.98-13.73 32.36-15.32L32.36-15.32L32.36-15.32Q32.15-15.46 28.19-17.04L28.19-17.04L28.19-17.04Q24.22-18.63 22.11-20.56L22.11-20.56L22.11-20.56Q20.01-22.49 20.01-24.98L20.01-24.98L20.01-24.98Q20.01-29.67 25.81-34.53L25.81-34.53L25.81-34.53Q31.60-39.40 38.47-42.09L38.47-42.09L38.47-42.09Q45.33-44.78 50.16-44.78L50.16-44.78L50.16-44.78Q53.54-44.78 55.41-43.57L55.41-43.57L55.41-43.57Q57.27-42.37 57.27-40.23L57.27-40.23L57.27-40.23Q57.27-39.95 57.27-39.61L57.27-39.61L57.27-39.61Q57.06-37.47 49.75-30.71L49.75-30.71L49.75-30.71Q47.06-28.22 45.02-25.15L45.02-25.15L45.02-25.15Q42.99-22.08 42.99-19.73L42.99-19.73L42.99-19.73Q42.99-19.53 42.99-19.32L42.99-19.32L42.99-19.32Q40.85-20.98 40.85-23.74L40.85-23.74L40.85-23.74Q40.85-26.22 42.99-29.81L42.99-29.81L42.99-29.81Q46.09-35.05 52.85-39.74ZM59.69-16.84L59.69-16.84L59.69-16.84Q59.69-17.73 58.37-17.73L58.37-17.73L58.37-17.73Q56.03-17.73 52.65-14.42L52.65-14.42L52.65-14.42Q51.82-13.59 49.65-10.97L49.65-10.97L49.65-10.97Q47.47-8.35 45.40-4.97L45.40-4.97L43.68-1.17L43.88-1.86L43.88-1.86Q43.75-1.59 43.61-1.04L43.61-1.04L43.61-1.04L43.61-1.04Q43.26-0.21 41.61 0.35L41.61 0.35L41.61 0.35Q41.26 0.48 40.99 0.48L40.99 0.48L40.99 0.48Q40.30 0.48 40.85-0.55L40.85-0.55L40.85-0.55Q41.12-1.24 42.78-5.49L42.78-5.49L42.78-5.49Q44.44-9.73 45.47-12.28L45.47-12.28L45.47-12.28Q42.78-9.32 40.43-7.45L40.43-7.45L40.43-7.45Q39.74-6.90 39.47-7.31L39.47-7.31L39.47-7.31Q39.40-7.38 39.40-7.59L39.40-7.59L39.40-7.59Q39.40-7.80 40.02-8.35L40.02-8.35L40.02-8.35Q44.23-12.01 46.64-15.11L46.64-15.11L46.64-15.11Q48.44-19.32 53.23-26.81L53.23-26.81L53.23-26.81Q58.03-34.29 63.07-39.19L63.07-39.19L63.07-39.19Q66.45-42.57 70.38-43.75L70.38-43.75L70.38-43.75Q72.17-44.30 73.73-44.30L73.73-44.30L73.73-44.30Q75.28-44.30 76.62-43.44L76.62-43.44L76.62-43.44Q77.97-42.57 77.97-40.23L77.97-40.23L77.97-40.23Q77.97-37.12 75.90-33.95L75.90-33.95L75.90-33.95Q73.83-30.77 68.59-26.88L68.59-26.88L68.59-26.88Q63.34-22.98 58.86-21.05L58.86-21.05L58.86-21.05Q58.03-20.70 57.89-21.15L57.89-21.15L57.89-21.15Q57.75-21.60 58.58-21.94L58.58-21.94L58.58-21.94Q62.58-23.74 67.59-27.60L67.59-27.60L67.59-27.60Q72.59-31.46 74.28-34.19L74.28-34.19L74.28-34.19Q75.97-36.92 75.97-38.61L75.97-38.61L75.97-38.61Q75.97-40.30 74.52-40.30L74.52-40.30L74.52-40.30Q72.86-40.30 69.28-37.54L69.28-37.54L69.28-37.54Q63.96-33.26 58.13-25.60L58.13-25.60L58.13-25.60Q52.30-17.94 48.09-10.14L48.09-10.14L48.09-10.14Q50.03-12.90 51.61-14.70L51.61-14.70L51.61-14.70Q55.48-19.04 59.13-19.04L59.13-19.04L59.13-19.04Q62.58-19.04 63.20-16.01L63.20-16.01L63.20-16.01Q63.27-15.59 63.27-14.84L63.27-14.84L63.27-14.84Q63.27-14.08 62.76-12.59L62.76-12.59L62.76-12.59Q62.24-11.11 59.86-7.14L59.86-7.14L59.86-7.14Q57.48-3.17 57.48-2.35L57.48-2.35L57.48-2.35Q57.48-1.52 58.03-1.52L58.03-1.52L58.03-1.52Q58.79-1.52 60.31-2.48L60.31-2.48L60.31-2.48Q64.17-4.90 70.38-10.63L70.38-10.63L70.38-10.63Q71.21-11.45 71.17-10.90L71.17-10.90L71.17-10.90Q71.14-10.35 70.73-9.87L70.73-9.87L70.73-9.87Q65.62-4.62 60.17-1.10L60.17-1.10L60.17-1.10Q57.62 0.55 55.55 0.55L55.55 0.55L55.55 0.55Q54.99 0.55 54.51 0.41L54.51 0.41L54.51 0.41Q51.82-0.14 51.82-2.59L51.82-2.59L51.82-2.59Q51.82-5.04 53.75-8.07L53.75-8.07L53.75-8.07Q54.10-8.56 56.30-11.32L56.30-11.32L56.30-11.32Q59.69-15.46 59.69-16.84ZM93.70-10.63L93.70-10.63L93.70-10.63Q92.94-9.73 92.15-8.69L92.15-8.69L92.15-8.69Q91.36-7.66 90.15-5.87L90.15-5.87L90.15-5.87Q88.94-4.07 88.94-2.83L88.94-2.83L88.94-2.83Q88.94-1.59 90.01-1.59L90.01-1.59L90.01-1.59Q91.08-1.59 93.50-2.90L93.50-2.90L93.50-2.90Q98.33-5.66 104.19-11.18L104.19-11.18L104.19-11.18Q104.88-11.87 105.09-11.39L105.09-11.39L105.09-11.39Q105.09-11.32 105.09-11.11L105.09-11.11L105.09-11.11Q105.09-10.90 104.81-10.63L104.81-10.63L104.81-10.63Q92.94 0.55 87.56 0.55L87.56 0.55L87.56 0.55Q85.97 0.55 84.90-0.52L84.90-0.52L84.90-0.52Q83.84-1.59 83.84-3.04L83.84-3.04L83.84-3.04Q83.84-4.49 85.08-7.45L85.08-7.45L85.08-7.45Q81.97-3.59 78.42-1.48L78.42-1.48L78.42-1.48Q74.87 0.62 72.86 0.62L72.86 0.62L72.86 0.62Q70.86 0.62 69.45-0.59L69.45-0.59L69.45-0.59Q68.03-1.79 68.03-3.59L68.03-3.59L68.03-3.59Q68.03-8.69 72.59-13.59L72.59-13.59L72.59-13.59Q76.04-17.25 81.14-18.77L81.14-18.77L81.14-18.77Q83.42-19.53 85.59-19.53L85.59-19.53L85.59-19.53Q87.77-19.53 89.80-18.32L89.80-18.32L89.80-18.32Q91.84-17.11 92.39-15.46L92.39-15.46L92.39-15.46Q94.46-15.46 95.36-13.94L95.36-13.94L95.36-13.94Q95.50-13.73 95.50-13.25L95.50-13.25L95.50-13.25Q95.50-12.77 94.98-12.14L94.98-12.14L94.98-12.14Q94.46-11.52 93.70-10.63ZM88.67-17.46L88.67-17.46L88.67-17.46Q87.22-17.46 85.22-16.56L85.22-16.56L85.22-16.56Q81.70-15.04 78.52-11.32L78.52-11.32L78.52-11.32Q73.48-5.38 73.48-2.62L73.48-2.62L73.48-2.62Q73.48-1.17 74.66-1.17L74.66-1.17L74.66-1.17Q75.62-1.17 77.87-2.42L77.87-2.42L77.87-2.42Q80.11-3.66 83.77-7.31L83.77-7.31L83.77-7.31Q83.97-7.52 85.35-8.83L85.35-8.83L85.35-8.83Q86.73-10.14 87.70-11.11L87.70-11.11L87.70-11.11Q90.94-14.49 90.94-15.97L90.94-15.97L90.94-15.97Q90.94-17.46 88.67-17.46ZM121.65-3.17L121.65-3.17L121.65-3.17Q120.34 0.41 120.34 2.69L120.34 2.69L120.34 2.69Q120.34 4.97 121.30 6.14L121.30 6.14L121.30 6.14Q121.51 6.42 121.37 6.52L121.37 6.52L121.37 6.52Q121.23 6.62 121.16 6.62L121.16 6.62L121.16 6.62Q121.09 6.62 120.96 6.56L120.96 6.56L120.96 6.56Q118.75 4.76 118.75 1.21L118.75 1.21L118.75 1.21Q118.75-2.35 120.20-6.97L120.20-6.97L120.20-6.97Q117.37-3.31 114.61-0.97L114.61-0.97L114.61-0.97Q111.30 1.79 107.85 1.79L107.85 1.79L107.85 1.79Q105.64 1.79 103.71 0.31L103.71 0.31L103.71 0.31Q101.78-1.17 101.78-4.55L101.78-4.55L101.78-4.55Q101.71-6.21 102.40-8.35L102.40-8.35L102.40-8.35Q101.02-7.11 100.64-6.83L100.64-6.83L100.64-6.83Q100.26-6.56 100.12-6.83L100.12-6.83L100.12-6.83Q99.98-7.11 99.98-7.35L99.98-7.35L99.98-7.35Q99.98-7.59 100.43-7.97L100.43-7.97L100.43-7.97Q100.88-8.35 105.22-13.04L105.22-13.04L105.22-13.04Q107.78-15.87 111.30-17.46L111.30-17.46L111.30-17.46Q114.82-19.04 117.99-19.04L117.99-19.04L117.99-19.04Q120.89-19.04 122.23-18.04L122.23-18.04L122.23-18.04Q123.58-17.04 123.58-15.53L123.58-15.53L123.58-15.53Q126.06-20.77 128.93-25.50L128.93-25.50L128.93-25.50Q131.79-30.22 133.38-32.02L133.38-32.02L133.38-32.02Q135.10-33.95 137.72-33.95L137.72-33.95L137.72-33.95Q140.35-33.95 142.00-32.50L142.00-32.50L142.00-32.50Q140.55-31.60 136.34-26.57L136.34-26.57L136.34-26.57Q132.13-21.53 128.13-15.77L128.13-15.77L128.13-15.77Q124.13-10.01 121.65-3.17ZM122.20-16.21L122.20-16.21L122.20-16.21Q122.20-17.60 120.47-17.60L120.47-17.60L120.47-17.60Q119.58-17.60 118.13-17.04L118.13-17.04L118.13-17.04Q114.89-15.80 111.71-12.21L111.71-12.21L111.71-12.21Q107.78-7.73 107.78-3.66L107.78-3.66L107.78-3.66Q107.78-1.24 109.36-0.76L109.36-0.76L109.36-0.76Q109.71-0.62 110.06-0.62L110.06-0.62L110.06-0.62Q112.88-0.62 118.47-6.28L118.47-6.28L118.47-6.28Q119.99-7.73 121.03-9.38L121.03-9.38L121.03-9.38Q121.58-10.97 122.47-13.04L122.47-13.04L122.47-13.04Q121.85-12.63 121.47-12.94L121.47-12.94L121.47-12.94Q121.09-13.25 121.65-14.32L121.65-14.32L121.65-14.32Q122.20-15.39 122.20-16.21ZM154.15-10.63L154.15-10.63L154.15-10.63Q153.39-9.73 152.59-8.69L152.59-8.69L152.59-8.69Q151.80-7.66 150.59-5.87L150.59-5.87L150.59-5.87Q149.39-4.07 149.39-2.83L149.39-2.83L149.39-2.83Q149.39-1.59 150.45-1.59L150.45-1.59L150.45-1.59Q151.52-1.59 153.94-2.90L153.94-2.90L153.94-2.90Q158.77-5.66 164.63-11.18L164.63-11.18L164.63-11.18Q165.32-11.87 165.53-11.39L165.53-11.39L165.53-11.39Q165.53-11.32 165.53-11.11L165.53-11.11L165.53-11.11Q165.53-10.90 165.25-10.63L165.25-10.63L165.25-10.63Q153.39 0.55 148.00 0.55L148.00 0.55L148.00 0.55Q146.42 0.55 145.35-0.52L145.35-0.52L145.35-0.52Q144.28-1.59 144.28-3.04L144.28-3.04L144.28-3.04Q144.28-4.49 145.52-7.45L145.52-7.45L145.52-7.45Q142.42-3.59 138.86-1.48L138.86-1.48L138.86-1.48Q135.31 0.62 133.31 0.62L133.31 0.62L133.31 0.62Q131.31 0.62 129.89-0.59L129.89-0.59L129.89-0.59Q128.48-1.79 128.48-3.59L128.48-3.59L128.48-3.59Q128.48-8.69 133.03-13.59L133.03-13.59L133.03-13.59Q136.48-17.25 141.59-18.77L141.59-18.77L141.59-18.77Q143.87-19.53 146.04-19.53L146.04-19.53L146.04-19.53Q148.21-19.53 150.25-18.32L150.25-18.32L150.25-18.32Q152.28-17.11 152.84-15.46L152.84-15.46L152.84-15.46Q154.91-15.46 155.80-13.94L155.80-13.94L155.80-13.94Q155.94-13.73 155.94-13.25L155.94-13.25L155.94-13.25Q155.94-12.77 155.42-12.14L155.42-12.14L155.42-12.14Q154.91-11.52 154.15-10.63ZM149.11-17.46L149.11-17.46L149.11-17.46Q147.66-17.46 145.66-16.56L145.66-16.56L145.66-16.56Q142.14-15.04 138.97-11.32L138.97-11.32L138.97-11.32Q133.93-5.38 133.93-2.62L133.93-2.62L133.93-2.62Q133.93-1.17 135.10-1.17L135.10-1.17L135.10-1.17Q136.07-1.17 138.31-2.42L138.31-2.42L138.31-2.42Q140.55-3.66 144.21-7.31L144.21-7.31L144.21-7.31Q144.42-7.52 145.80-8.83L145.80-8.83L145.80-8.83Q147.18-10.14 148.14-11.11L148.14-11.11L148.14-11.11Q151.39-14.49 151.39-15.97L151.39-15.97L151.39-15.97Q151.39-17.46 149.11-17.46ZM181.06-13.80L181.06-13.80L181.06-13.80Q178.02-10.28 176.12-7.35L176.12-7.35L176.12-7.35Q174.23-4.42 174.23-3.21L174.23-3.21L174.23-3.21Q174.23-2.00 175.64-2.00L175.64-2.00L175.64-2.00Q177.05-2.00 181.44-4.83L181.44-4.83L181.44-4.83Q185.82-7.66 189.54-11.18L189.54-11.18L189.54-11.18Q189.89-11.52 190.16-11.45L190.16-11.45L190.16-11.45Q190.44-11.39 190.44-11.11L190.44-11.11L190.44-11.11Q190.44-10.83 190.16-10.49L190.16-10.49L190.16-10.49Q181.26-2.35 176.57-0.28L176.57-0.28L176.57-0.28Q174.50 0.55 173.60 0.55L173.60 0.55L173.60 0.55Q170.29 0.55 169.08-0.55L169.08-0.55L169.08-0.55Q167.88-1.66 167.88-2.97L167.88-2.97L167.88-2.97Q167.88-5.59 168.91-6.97L168.91-6.97L168.91-6.97Q172.29-11.73 174.29-15.04L174.29-15.04L174.29-15.04Q174.92-16.01 174.05-16.39L174.05-16.39L174.05-16.39Q173.19-16.77 171.91-16.77L171.91-16.77L171.91-16.77Q170.64-16.77 170.57-16.84L170.57-16.84L170.57-16.84Q165.95-10.63 161.39-7.04L161.39-7.04L161.39-7.04Q160.84-6.56 160.77-7.04L160.77-7.04L160.77-7.04Q160.77-7.59 161.53-8.35L161.53-8.35L161.53-8.35Q166.36-12.49 169.46-17.11L169.46-17.11L169.46-17.11Q168.84-17.53 168.84-18.25L168.84-18.25L168.84-18.25Q168.84-18.98 168.95-20.01L168.95-20.01L168.95-20.01Q169.05-21.05 170.02-22.77L170.02-22.77L170.02-22.77Q171.67-25.67 173.47-25.67L173.47-25.67L173.47-25.67Q174.98-25.67 174.98-24.01L174.98-24.01L174.98-24.01Q174.98-21.74 172.85-19.04L172.85-19.04L172.85-19.04Q171.81-17.80 170.91-17.25L170.91-17.25L170.91-17.25Q173.47-18.08 178.37-18.08L178.37-18.08L178.37-18.08Q180.78-18.08 181.82-16.28L181.82-16.28L181.82-16.28Q181.95-16.01 181.95-15.46L181.95-15.46L181.95-15.46Q181.95-14.90 181.06-13.80ZM258.27-39.74L258.27-39.74L258.27-39.74Q257.72-40.64 256.34-40.64L256.34-40.64L256.34-40.64Q254.96-40.64 253.75-40.30L253.75-40.30L253.75-40.30Q252.54-39.95 250.88-39.33L250.88-39.33L250.88-39.33Q248.19-38.23 246.54-37.26L246.54-37.26L246.54-37.26Q240.33-33.95 234.95-29.50L234.95-29.50L234.95-29.50Q229.56-25.05 229.29-22.84L229.29-22.84L229.29-22.84Q229.15-21.11 231.15-20.01L231.15-20.01L231.15-20.01Q232.88-18.98 235.15-18.04L235.15-18.04L235.15-18.04Q237.43-17.11 238.46-16.63L238.46-16.63L238.46-16.63Q243.98-13.87 243.98-9.32L243.98-9.32L243.98-9.32Q243.98-7.31 242.81-5.45L242.81-5.45L242.81-5.45Q240.95-2.55 237.19-0.66L237.19-0.66L237.19-0.66Q233.43 1.24 229.15 2.00L229.15 2.00L229.15 2.00Q224.73 2.76 221.84 2.76L221.84 2.76L221.84 2.76Q216.59 2.76 211.35 0.52L211.35 0.52L211.35 0.52Q206.10-1.73 204.86-6.49L204.86-6.49L204.86-6.49Q207.41-4.21 211.90-3.24L211.90-3.24L211.90-3.24Q216.38-2.28 220.46-2.28L220.46-2.28L220.46-2.28Q226.53-2.35 229.46-3.24L229.46-3.24L229.46-3.24Q232.39-4.14 234.57-5.35L234.57-5.35L234.57-5.35Q236.74-6.56 238.57-8.18L238.57-8.18L238.57-8.18Q240.40-9.80 240.40-11.76L240.40-11.76L240.40-11.76Q240.40-13.73 237.77-15.32L237.77-15.32L237.77-15.32Q237.57-15.46 233.60-17.04L233.60-17.04L233.60-17.04Q229.63-18.63 227.53-20.56L227.53-20.56L227.53-20.56Q225.42-22.49 225.42-24.98L225.42-24.98L225.42-24.98Q225.42-29.67 231.22-34.53L231.22-34.53L231.22-34.53Q237.02-39.40 243.88-42.09L243.88-42.09L243.88-42.09Q250.75-44.78 255.58-44.78L255.58-44.78L255.58-44.78Q258.96-44.78 260.82-43.57L260.82-43.57L260.82-43.57Q262.68-42.37 262.68-40.23L262.68-40.23L262.68-40.23Q262.68-39.95 262.68-39.61L262.68-39.61L262.68-39.61Q262.48-37.47 255.16-30.71L255.16-30.71L255.16-30.71Q252.47-28.22 250.44-25.15L250.44-25.15L250.44-25.15Q248.40-22.08 248.40-19.73L248.40-19.73L248.40-19.73Q248.40-19.53 248.40-19.32L248.40-19.32L248.40-19.32Q246.26-20.98 246.26-23.74L246.26-23.74L246.26-23.74Q246.26-26.22 248.40-29.81L248.40-29.81L248.40-29.81Q251.51-35.05 258.27-39.74ZM258.47-23.67L258.47-23.67L258.47-23.67Q259.99-25.94 260.92-27.29L260.92-27.29L260.92-27.29Q261.86-28.64 262.41-29.26L262.41-29.26L262.41-29.26Q262.96-29.88 264.89-30.33L264.89-30.33L264.89-30.33Q266.82-30.77 268.62-30.77L268.62-30.77L268.62-30.77Q270.41-30.77 270.41-30.39L270.41-30.39L270.41-30.39Q270.41-30.02 267.44-27.19L267.44-27.19L267.44-27.19Q264.48-24.36 260.54-19.67L260.54-19.67L260.54-19.67Q265.24-18.91 266.69-16.70L266.69-16.70L266.69-16.70Q267.24-15.73 266.86-15.46L266.86-15.46L266.86-15.46Q266.48-15.18 266.00-15.66L266.00-15.66L266.00-15.66Q264.55-17.11 261.37-17.11L261.37-17.11L261.37-17.11Q259.99-17.11 258.27-16.84L258.27-16.84L258.27-16.84Q252.68-9.66 251.23-5.11L251.23-5.11L251.23-5.11Q250.75-3.80 250.75-2.90L250.75-2.90L250.75-2.90Q250.75-0.48 252.75-0.48L252.75-0.48L252.75-0.48Q254.89-0.48 258.75-3.45L258.75-3.45L258.75-3.45Q263.79-7.25 267.51-10.97L267.51-10.97L267.51-10.97Q268.20-11.73 268.41-11.32L268.41-11.32L268.41-11.32Q268.62-10.90 268.06-10.42L268.06-10.42L268.06-10.42Q262.13-4.21 258.09-1.28L258.09-1.28L258.09-1.28Q254.06 1.66 250.68 1.66L250.68 1.66L250.68 1.66Q246.05 1.66 246.05-3.24L246.05-3.24L246.05-3.24Q246.05-5.59 247.37-8.83L247.37-8.83L246.12-7.66L246.12-7.66Q245.57-7.11 245.33-7.35L245.33-7.35L245.33-7.35Q245.09-7.59 245.09-7.80L245.09-7.80L245.09-7.80Q245.09-8.00 245.64-8.49L245.64-8.49L245.64-8.49Q250.68-12.90 252.54-15.18L252.54-15.18L252.54-15.18Q251.23-14.70 250.78-15.11L250.78-15.11L250.78-15.11Q250.33-15.53 250.16-16.21L250.16-16.21L250.16-16.21Q249.99-16.91 250.85-17.91L250.85-17.91L250.85-17.91Q251.71-18.91 253.40-19.35L253.40-19.35L253.40-19.35Q255.09-19.80 255.92-19.87L255.92-19.87L255.92-19.87Q256.96-21.39 258.47-23.67ZM280.69-10.63L280.69-10.63L280.69-10.63Q280.00-9.59 278.83-8.00L278.83-8.00L278.83-8.00Q277.66-6.42 276.62-4.97L276.62-4.97L276.62-4.97Q275.59-3.52 275.59-2.79L275.59-2.79L275.59-2.79Q275.59-2.07 276.28-2.07L276.28-2.07L276.28-2.07Q277.52-2.07 279.93-4.28L279.93-4.28L282.14-6.42L282.14-6.42Q285.52-10.07 288.08-13.46L288.08-13.46L290.63-16.56L290.63-16.56Q291.80-17.87 293.11-17.94L293.11-17.94L293.11-17.94Q295.11-17.94 296.84-16.42L296.84-16.42L296.84-16.42Q296.42-15.80 295.49-14.63L295.49-14.63L295.49-14.63Q294.56-13.46 293.63-12.25L293.63-12.25L293.63-12.25Q292.70-11.04 291.49-9.45L291.49-9.45L291.49-9.45Q290.28-7.87 289.39-6.49L289.39-6.49L289.39-6.49Q288.49-5.11 287.56-3.55L287.56-3.55L287.56-3.55Q286.63-2.00 286.21-0.90L286.21-0.90L286.21-0.90Q285.18 2.14 286.28 2.90L286.28 2.90L286.28 2.90Q286.63 3.24 286.14 3.24L286.14 3.24L286.14 3.24Q286.01 3.24 285.87 3.17L285.87 3.17L285.87 3.17Q283.25 2.28 283.25-1.10L283.25-1.10L283.25-1.10Q283.25-4.49 285.45-9.11L285.45-9.11L285.45-9.11Q278.07 0.41 273.45 0.41L273.45 0.41L273.45 0.41Q269.93 0.41 269.93-2.90L269.93-2.90L269.93-2.90Q269.93-4.07 270.41-5.66L270.41-5.66L270.41-5.66Q271.45-8.76 277.45-15.46L277.45-15.46L277.45-15.46Q278.21-16.35 278.21-16.97L278.21-16.97L278.21-16.97Q278.21-17.60 277.38-17.60L277.38-17.60L277.38-17.60Q276.55-17.60 274.90-16.35L274.90-16.35L274.90-16.35Q273.24-15.11 270.27-12.32L270.27-12.32L270.27-12.32Q267.31-9.52 266.65-8.97L266.65-8.97L266.65-8.97Q266.00-8.42 266.00-9.25L266.00-9.25L266.00-9.25Q266.00-9.66 267.31-10.73L267.31-10.73L267.31-10.73Q268.62-11.80 270.89-14.18L270.89-14.18L270.89-14.18Q273.17-16.56 274.86-17.84L274.86-17.84L274.86-17.84Q276.55-19.11 278.76-19.11L278.76-19.11L278.76-19.11Q281.24-19.11 282.14-17.25L282.14-17.25L282.14-17.25Q282.49-16.56 282.49-15.46L282.49-15.46L282.49-15.46Q282.49-14.35 281.93-13.01L281.93-13.01L281.93-13.01Q281.38-11.66 280.69-10.63ZM316.85-3.17L316.85-3.17L316.85-3.17Q315.54 0.41 315.54 2.69L315.54 2.69L315.54 2.69Q315.54 4.97 316.50 6.14L316.50 6.14L316.50 6.14Q316.71 6.42 316.57 6.52L316.57 6.52L316.57 6.52Q316.43 6.62 316.37 6.62L316.37 6.62L316.37 6.62Q316.30 6.62 316.16 6.56L316.16 6.56L316.16 6.56Q313.95 4.76 313.95 1.21L313.95 1.21L313.95 1.21Q313.95-2.35 315.40-6.97L315.40-6.97L315.40-6.97Q312.57-3.31 309.81-0.97L309.81-0.97L309.81-0.97Q306.50 1.79 303.05 1.79L303.05 1.79L303.05 1.79Q300.84 1.79 298.91 0.31L298.91 0.31L298.91 0.31Q296.98-1.17 296.98-4.55L296.98-4.55L296.98-4.55Q296.91-6.21 297.60-8.35L297.60-8.35L297.60-8.35Q296.22-7.11 295.84-6.83L295.84-6.83L295.84-6.83Q295.46-6.56 295.32-6.83L295.32-6.83L295.32-6.83Q295.18-7.11 295.18-7.35L295.18-7.35L295.18-7.35Q295.18-7.59 295.63-7.97L295.63-7.97L295.63-7.97Q296.08-8.35 300.43-13.04L300.43-13.04L300.43-13.04Q302.98-15.87 306.50-17.46L306.50-17.46L306.50-17.46Q310.02-19.04 313.19-19.04L313.19-19.04L313.19-19.04Q316.09-19.04 317.43-18.04L317.43-18.04L317.43-18.04Q318.78-17.04 318.78-15.53L318.78-15.53L318.78-15.53Q321.26-20.77 324.13-25.50L324.13-25.50L324.13-25.50Q326.99-30.22 328.58-32.02L328.58-32.02L328.58-32.02Q330.30-33.95 332.93-33.95L332.93-33.95L332.93-33.95Q335.55-33.95 337.20-32.50L337.20-32.50L337.20-32.50Q335.75-31.60 331.55-26.57L331.55-26.57L331.55-26.57Q327.34-21.53 323.33-15.77L323.33-15.77L323.33-15.77Q319.33-10.01 316.85-3.17ZM317.40-16.21L317.40-16.21L317.40-16.21Q317.40-17.60 315.68-17.60L315.68-17.60L315.68-17.60Q314.78-17.60 313.33-17.04L313.33-17.04L313.33-17.04Q310.09-15.80 306.91-12.21L306.91-12.21L306.91-12.21Q302.98-7.73 302.98-3.66L302.98-3.66L302.98-3.66Q302.98-1.24 304.57-0.76L304.57-0.76L304.57-0.76Q304.91-0.62 305.26-0.62L305.26-0.62L305.26-0.62Q308.09-0.62 313.67-6.28L313.67-6.28L313.67-6.28Q315.19-7.73 316.23-9.38L316.23-9.38L316.23-9.38Q316.78-10.97 317.68-13.04L317.68-13.04L317.68-13.04Q317.06-12.63 316.68-12.94L316.68-12.94L316.68-12.94Q316.30-13.25 316.85-14.32L316.85-14.32L316.85-14.32Q317.40-15.39 317.40-16.21ZM337.96-21.05L337.96-21.05L337.96-21.05Q337.20-21.67 337.34-22.84L337.34-22.84L337.34-22.84Q337.48-24.01 338.58-25.32L338.58-25.32L338.58-25.32Q339.69-26.63 341.55-26.63L341.55-26.63L341.55-26.63Q342.10-26.63 342.72-26.12L342.72-26.12L342.72-26.12Q343.34-25.60 343.21-24.39L343.21-24.39L343.21-24.39Q343.07-23.18 342.10-22.11L342.10-22.11L342.10-22.11Q341.14-21.05 339.93-20.73L339.93-20.73L339.93-20.73Q338.72-20.42 337.96-21.05ZM337.07-17.39L337.07-17.39L337.07-17.39Q334.24-14.49 332.34-10.04L332.34-10.04L332.34-10.04Q330.44-5.59 330.44-3.80L330.44-3.80L330.44-3.80Q330.44-2.00 331.86-2.00L331.86-2.00L331.86-2.00Q333.27-2.00 336.55-4.07L336.55-4.07L336.55-4.07Q339.83-6.14 344.03-9.94L344.03-9.94L344.03-9.94Q344.93-10.76 344.93-9.73L344.93-9.73L344.93-9.73Q344.93-9.59 344.79-9.45L344.79-9.45L344.79-9.45Q341.48-6.56 339.20-4.69L339.20-4.69L339.20-4.69Q336.93-2.83 333.79-1.14L333.79-1.14L333.79-1.14Q330.65 0.55 328.65 0.55L328.65 0.55L328.65 0.55Q326.16 0.55 324.96-0.55L324.96-0.55L324.96-0.55Q323.75-1.66 323.75-2.97L323.75-2.97L323.75-2.97Q323.75-5.45 324.65-6.90L324.65-6.90L324.65-6.90Q325.54-8.35 327.68-10.90L327.68-10.90L327.68-10.90Q326.92-10.28 325.30-8.83L325.30-8.83L325.30-8.83Q323.68-7.38 323.06-6.90L323.06-6.90L323.06-6.90Q322.44-6.42 322.44-7.18L322.44-7.18L322.44-7.18Q322.44-7.66 323.54-8.56L323.54-8.56L323.54-8.56Q324.65-9.45 328.34-13.11L328.34-13.11L328.34-13.11Q332.03-16.77 333.37-17.46L333.37-17.46L333.37-17.46Q334.72-18.15 335.58-18.15L335.58-18.15L335.58-18.15Q336.44-18.15 336.86-17.91L336.86-17.91L336.86-17.91Q337.27-17.66 337.07-17.39ZM354.94-1.17L354.94-1.17L354.94-1.17Q350.31 1.17 346.86 1.17L346.86 1.17L346.86 1.17Q343.97 1.17 342.93-0.76L342.93-0.76L342.93-0.76Q342.38-1.73 342.38-2.97L342.38-2.97L342.38-2.97Q342.38-5.80 343.69-8.49L343.69-8.49L343.69-8.49Q342.79-7.59 341.96-7.04L341.96-7.04L341.96-7.04Q341.27-6.42 341.27-7.18L341.27-7.18L341.27-7.18Q341.27-7.66 342.48-8.69L342.48-8.69L342.48-8.69Q343.69-9.73 346.17-12.18L346.17-12.18L346.17-12.18Q348.66-14.63 350.11-15.87L350.11-15.87L350.11-15.87Q354.32-19.39 359.01-19.39L359.01-19.39L359.01-19.39Q360.73-19.39 362.53-18.49L362.53-18.49L362.53-18.49Q365.15-17.25 365.15-13.94L365.15-13.94L365.15-13.94Q365.15-9.94 361.15-5.73L361.15-5.73L361.15-5.73Q359.56-3.93 356.73-2.14L356.73-2.14L356.73-2.14Q362.39-3.04 368.74-8.97L368.74-8.97L368.74-8.97Q369.08-9.25 369.36-9.21L369.36-9.21L369.36-9.21Q369.63-9.18 369.63-8.90L369.63-8.90L369.63-8.90Q369.63-8.63 369.36-8.35L369.36-8.35L369.36-8.35Q361.77-1.17 355.21-1.17L355.21-1.17L355.21-1.17Q355.07-1.17 354.94-1.17ZM361.63-8.42L361.63-8.42L361.63-8.42Q363.35-11.04 363.35-12.87L363.35-12.87L363.35-12.87Q363.35-14.70 361.77-15.66L361.77-15.66L361.77-15.66Q360.87-16.42 359.70-16.42L359.70-16.42L359.70-16.42Q355.49-16.42 351.93-13.11L351.93-13.11L351.93-13.11Q348.38-9.80 347.21-6.07L347.21-6.07L347.21-6.07Q346.73-4.76 346.73-3.35L346.73-3.35L346.73-3.35Q346.73-1.93 347.79-1.35L347.79-1.35L347.79-1.35Q348.86-0.76 350.18-0.76L350.18-0.76L350.18-0.76Q351.49-0.76 353.97-2.07L353.97-2.07L353.97-2.07Q353.83-2.07 353.56-2.21L353.56-2.21L353.56-2.21Q352.73-2.62 352.73-3.31L352.73-3.31L352.73-3.31Q352.73-5.73 355.42-8.21L355.42-8.21L355.42-8.21Q357.35-9.94 359.35-9.94L359.35-9.94L359.35-9.94Q361.35-9.94 361.63-8.42Z" fill="#ccc"></path></g></g><style>text {
  font-size: 64px;
  font-family: Arial Black;
  dominant-baseline: central;
  text-anchor: middle;
}</style></svg>